inDegrees=no
num_controls=7
num_derivatives=13
num_iterations=85
num_multipliers=7
num_parameters=0
num_slacks=7
num_states=26
objective=0.369307
objective_accelerations=0.039105
objective_balance=0.001730
objective_effort=0.057343
objective_height=0.265111
objective_ligament=0.006019
solver_duration=946.374332
status=Solve_Succeeded
success=true
DataType=double
version=3
OpenSimVersion=4.5
endheader
time	/jointset/ground_pelvis/pelvis_tilt/value	/jointset/ground_pelvis/pelvis_tx/value	/jointset/ground_pelvis/pelvis_ty/value	/jointset/hip_r/hip_flexion_r/value	/jointset/hip_r/hip_adduction_r/value	/jointset/hip_r/hip_rotation_r/value	/jointset/back/lumbar_extension/value	/jointset/patellofemoral_r/patellar_flexion_r/value	/jointset/knee_r/knee_flexion_r/value	/jointset/knee_r/knee_adduction_r/value	/jointset/knee_r/knee_rotation_r/value	/jointset/ankle_r/ankle_angle_r/value	/jointset/subtalar_r/subtalar_angle_r/value	/jointset/ground_pelvis/pelvis_tilt/speed	/jointset/ground_pelvis/pelvis_tx/speed	/jointset/ground_pelvis/pelvis_ty/speed	/jointset/hip_r/hip_flexion_r/speed	/jointset/hip_r/hip_adduction_r/speed	/jointset/hip_r/hip_rotation_r/speed	/jointset/back/lumbar_extension/speed	/jointset/patellofemoral_r/patellar_flexion_r/speed	/jointset/knee_r/knee_flexion_r/speed	/jointset/knee_r/knee_adduction_r/speed	/jointset/knee_r/knee_rotation_r/speed	/jointset/ankle_r/ankle_angle_r/speed	/jointset/subtalar_r/subtalar_angle_r/speed	/forceset/tau_hip_flexion_r	/forceset/tau_hip_adduction_r	/forceset/tau_hip_rotation_r	/forceset/tau_knee_flexion_r	/forceset/tau_ankle_angle_r	/forceset/tau_subtalar_angle_r	/forceset/tau_lumbar_extension	lambda_cid13_p0	lambda_cid14_p0	lambda_cid14_p1	lambda_cid14_p2	lambda_cid14_p3	lambda_cid14_p4	lambda_cid14_p5	/jointset/ground_pelvis/pelvis_tilt/accel	/jointset/ground_pelvis/pelvis_tx/accel	/jointset/ground_pelvis/pelvis_ty/accel	/jointset/hip_r/hip_flexion_r/accel	/jointset/hip_r/hip_adduction_r/accel	/jointset/hip_r/hip_rotation_r/accel	/jointset/back/lumbar_extension/accel	/jointset/patellofemoral_r/patellar_flexion_r/accel	/jointset/knee_r/knee_flexion_r/accel	/jointset/knee_r/knee_adduction_r/accel	/jointset/knee_r/knee_rotation_r/accel	/jointset/ankle_r/ankle_angle_r/accel	/jointset/subtalar_r/subtalar_angle_r/accel	gamma_cid13_p0	gamma_cid14_p0	gamma_cid14_p1	gamma_cid14_p2	gamma_cid14_p3	gamma_cid14_p4	gamma_cid14_p5
0.5	-0.2085488685666746	-0.03455591917751934	0.6038063279378058	1.504085351475194	-0.2387121025215224	-0.04316085908674459	-0.7541253193279088	1.592233183906554	1.59223318390669	-0.1524760161565938	0.1726742446884651	0.4144508798355778	0.1631000812675411	-0.3702508703420577	-0.133224345300646	-1.068762068607851	2.968239379612801	-0.07663598212961902	0.5174150267224107	-0.4057656794075878	2.849919401508235	2.849919401508283	-0.2664926456169556	-0.01349564090600971	0.3371010093568329	0.01079088812679397	-0.333017853618515	0.002976451399443133	0.0110615974928486	-0.4789466852141877	0.04257263873178501	0.003687172083970823	0.3687354566771785	-0.04187788007153597	-36.43697808034701	-8.039583016764611	5.428590306431221	-9.266646511121552	-752.489820857659	76.33979477260122	1.901986300656973	1.233658127138024	1.02730840951619	-4.43819715725913	0.6625037171836743	0.7221090150542215	3.386248556970381	-5.996277806022929	-5.996277806022796	1.948939140432743	0.01590832121346491	-3.744835881026713	-0.6385234412807954	2.450935077172751e-09	5.052622851130206e-07	2.641432586205133e-06	1.421763429719612e-06	-9.689329979595076e-07	-2.640791630515297e-07	2.861830021587101e-06
0.51	-0.2121556643401388	-0.03582706286815879	0.5931726373072089	1.533542912909178	-0.2394458480315264	-0.03795305175274191	-0.7580156476952439	1.620429968466938	1.620429968466923	-0.1550446244604221	0.1725434219592107	0.4176345471247865	0.1631751004113942	-0.3510595611905071	-0.1210646173864718	-1.057704954365971	2.922922561252741	-0.07005522879586504	0.5240803074900191	-0.3725009884318164	2.789147211666878	2.789147211666891	-0.2473048538081694	-0.01263031928058934	0.2996704043183059	0.00433723857223675	-0.3395099716436325	0.002473372240592831	0.01000148334239094	-0.4886520039372049	0.04318077571410137	0.00320050617089074	0.3746185465872906	-0.04161713754004169	-36.91376768544417	-8.505521285905155	5.698306323300238	-8.677572677986863	-761.455484421928	76.91059881457322	1.935031569864179	1.19790819325293	1.185531007126924	-4.630948712984051	0.6647279684313756	0.6286189078896547	3.266430212019654	-6.161227974162022	-6.161227974167308	1.89255270246592	0.1279963242707978	-3.736498265828857	-0.629633585319204	-6.920228809300111e-08	4.0231526986739e-07	2.148893681785714e-06	9.246267272845644e-07	-9.092201827619617e-07	-2.087448863595181e-07	1.759566561655547e-06
0.52	-0.2155690813525956	-0.03697845366571735	0.5826576414341516	1.56253680125204	-0.2401120126428009	-0.0326806153510076	-0.7615793589839933	1.648010323448714	1.648010323448549	-0.1574235841458885	0.1724224828944228	0.4204450432734972	0.1631894134851467	-0.3315751181405533	-0.1092737666844684	-1.045023117099973	2.8755047613885	-0.06311980238370633	0.5303408402686485	-0.3404422636904792	2.726633485786726	2.726633485786703	-0.2285629219448088	-0.01151890801259088	0.2624667812572521	-0.001350325893360605	-0.3460020896687526	0.001970293081743167	0.008941369191927215	-0.4983573226602226	0.0437889126964185	0.002713840257812353	0.3805016364974003	-0.04134131378542951	-37.41113153097822	-8.963491039956091	5.953537275812959	-8.039249336058077	-770.7285750118571	77.59234680195547	1.960613080337629	1.159882684703867	1.35225301433968	-4.858393458095024	0.7334383328646213	0.6411594172584291	3.145055310083545	-6.344585013781781	-6.344585013781973	1.859767151347631	0.06512624972908779	-3.699439485532096	-0.4853064234888253	-1.44019956039304e-07	2.974729924903298e-07	1.653932679643059e-06	4.283341731834826e-07	-8.445430283391833e-07	-1.516961543353162e-07	5.788494135223748e-07
0.53	-0.2187866222750627	-0.03801381862365539	0.5722773804568159	1.59104626933584	-0.2407072183901846	-0.02734675171558043	-0.7648285121003584	1.674957291668702	1.674957291668644	-0.1596164837626103	0.1723137314686005	0.4228851840159423	0.1631506778555828	-0.3119173328561023	-0.09786338236290826	-1.030776901862057	2.826046537208171	-0.05588155959624459	0.5363358952020549	-0.3096017440197726	2.662504484001678	2.662504484001736	-0.2101125627350319	-0.01019454431525608	0.2256582305933277	-0.006269608428235905	-0.3514429933328511	0.001313277153880302	0.007758943159837477	-0.5071055784990909	0.04476317264018741	0.002077498938459012	0.3853618220788791	-0.0410517315175692	-37.71535317837406	-9.468086551365463	6.233835797654895	-7.530514782882416	-778.6956172895342	77.98321909700508	1.970700291457976	1.12183057267893	1.498607908051191	-5.040897738662173	0.725044112189537	0.5640154350740906	3.021542629980652	-6.485372228633504	-6.48537222862114	1.82359809073525	0.171689947408439	-3.657048221672282	-0.4759265572703714	-2.224726198485547e-07	1.913203145343406e-07	1.164938782766718e-06	-7.111189815976403e-08	-7.748608891653208e-07	-9.254898106723945e-08	-6.726376086888053e-07
0.54	-0.2218071175368936	-0.03893703688501849	0.562047142057766	1.619050883009705	-0.2412288363375931	-0.02195587015008017	-0.767775661553133	1.701255306977287	1.701255306977335	-0.1616276942302437	0.1722193433832857	0.4249601421787779	0.1630666119229134	-0.2921659860132861	-0.08684442736947812	-1.015018601442793	2.774533879401431	-0.04840224238867946	0.5417444262831559	-0.2800415309724082	2.596842903505944	2.596842903506087	-0.1922250921275535	-0.008646239911011672	0.189430265335416	-0.01041638651445006	-0.3568838969969522	0.0006562612260183841	0.006576517127737459	-0.5158538343379597	0.04573743258395723	0.001441157619108093	0.3902220076603554	-0.04073357209512542	-38.04136793384263	-9.963601310135097	6.497956524882759	-6.971217491556726	-786.989221156519	78.49638026180448	1.979325392010637	1.081596819077862	1.654670050609329	-5.269280183377059	0.7816532168852967	0.5238546467973538	2.888993985415097	-6.65110075591869	-6.651100755918418	1.747189430887941	0.1099143911110098	-3.583322404329576	-0.3308055337565971	-3.04946981208301e-07	8.371783168251533e-08	6.825467895892771e-07	-5.74046967302853e-07	-6.996413200540886e-07	-3.108012812508821e-08	-2.002423214986293e-06
0.55	-0.2246300097342991	-0.03975208511612841	0.5519818235737359	1.646530320894414	-0.2416745982480962	-0.01651286755829168	-0.7704336578901733	1.726889477992628	1.726889477992622	-0.1634618688025152	0.1721414218498813	0.4266762294661796	0.1629449341595835	-0.2724271327226496	-0.07623581392389506	-0.9978146875830117	2.72102208762835	-0.04072850284005825	0.5467321504953749	-0.2517839453347466	2.529771210830657	2.529771210830735	-0.1747230500877583	-0.006905857473036244	0.1539371162781665	-0.01379542821370471	-0.3613079320080143	-0.000335070162484513	0.005309706798441009	-0.5234259676044877	0.04675366087653415	0.0007968131917723692	0.3940632983493082	-0.04039357784411443	-38.26065438771627	-10.42896710914605	6.74020820371067	-6.436944149163423	-793.8879628527452	78.87656461643616	1.968902233564016	1.039772624094937	1.787813710358055	-5.441923111417353	0.7634174549445191	0.4673084913202024	2.760209518079047	-6.768146846458041	-6.768146846467928	1.735056756307473	0.210701673679306	-3.509835867659553	-0.3229299807791351	-3.803347396864642e-07	-1.371882200276396e-08	2.366408677428355e-07	-1.028316182186258e-06	-6.253459971528439e-07	2.707633471475903e-08	-3.263979501505016e-06
0.5600000000000001	-0.2272559660116037	-0.04046319140942322	0.5420954565596429	1.673464681973964	-0.2420429861368943	-0.01102377228780305	-0.7728158646378093	1.75184634341659	1.75184634341653	-0.1651243539212283	0.1720818244415645	0.428041880320761	0.1627931706807073	-0.2527788019930592	-0.06605603980645937	-0.9792283074554089	2.665518518369518	-0.03292743804767786	0.5509629620230361	-0.2248836130915902	2.461381785230396	2.461381785230408	-0.1578872014166766	-0.004981414893521847	0.1193429787714405	-0.01643352962372803	-0.3657319670190791	-0.00132640155098592	0.004042896469128195	-0.5309981008710164	0.04776988916911217	0.000152468764440296	0.3979045890382587	-0.04002324974009093	-38.50192867513977	-10.88393189772386	6.964523638595158	-5.850700375009555	-801.1154753410194	79.38858321595565	1.96122087980139	0.995828953448388	1.931163304173644	-5.667635680527146	0.8071182656371305	0.3724721098857906	2.617543306514064	-6.914647340913598	-6.914647340913528	1.613950757145259	0.1467264194188012	-3.403520094224871	-0.1826174759103307	-4.47218574706728e-07	-9.895648068818839e-08	-1.654817685064083e-07	-1.424186371958044e-06	-5.521597697035841e-07	8.125792943184157e-08	-4.443660604289222e-06
